<svg width="32" height="32" viewBox="0 0 32 32" fill="none" xmlns="http://www.w3.org/2000/svg">
<path d="M4.75 0.25C3.55653 0.25 2.41193 0.724106 1.56802 1.56802C0.724106 2.41193 0.25 3.55653 0.25 4.75V27.25C0.25 28.4435 0.724106 29.5881 1.56802 30.432C2.41193 31.2759 3.55653 31.75 4.75 31.75H27.25C28.4435 31.75 29.5881 31.2759 30.432 30.432C31.2759 29.5881 31.75 28.4435 31.75 27.25V4.75C31.75 3.55653 31.2759 2.41193 30.432 1.56802C29.5881 0.724106 28.4435 0.25 27.25 0.25H4.75ZM16 10.9825C16 10.9825 17.5862 8.54125 19.645 8.18125C24.7525 7.2925 26.8562 11.7588 26.0012 15.0775C24.4825 21.0063 16 26.1812 16 26.1812C16 26.1812 7.5175 21.0062 5.99875 15.0887C5.155 11.77 7.25875 7.2925 12.355 8.1925C14.4138 8.5525 16 10.9825 16 10.9825Z" fill="#FFCC26"/>
</svg>
